<svg xmlns="http://www.w3.org/2000/svg" viewBox="0 0 1200 700">
  <!-- Background -->
  <rect width="1200" height="700" fill="#07111f"/>
  
  <!-- Header -->
  <rect width="1200" height="80" fill="#0d1a2b"/>
  <text x="50" y="50" font-size="32" fill="#63d2ff" font-weight="bold">HR Assist Pro</text>
  <text x="50" y="70" font-size="14" fill="#9db0c8">System Status & Metrics</text>
  
  <!-- Tabs -->
  <rect x="50" y="90" width="200" height="40" fill="transparent" stroke="#63d2ff" stroke-width="2" rx="5"/>
  <text x="150" y="118" font-size="14" fill="#63d2ff" text-anchor="middle">Employee Portal</text>
  
  <rect x="260" y="90" width="200" height="40" fill="transparent" stroke="#63d2ff" stroke-width="2" rx="5"/>
  <text x="360" y="118" font-size="14" fill="#63d2ff" text-anchor="middle">HR Administrator</text>
  
  <rect x="470" y="90" width="200" height="40" fill="#63d2ff" rx="5"/>
  <text x="570" y="118" font-size="14" fill="#07111f" font-weight="bold" text-anchor="middle">System Status</text>
  
  <!-- Status Metrics -->
  <rect x="50" y="150" width="270" height="130" fill="#0d1a2b" rx="8"/>
  <rect x="70" y="170" width="230" height="50" fill="#0a1423" rx="5"/>
  <text x="80" y="190" font-size="12" fill="#9db0c8">📄 Total Documents</text>
  <text x="80" y="215" font-size="28" fill="#34d399" font-weight="bold">5</text>
  
  <rect x="70" y="235" width="230" height="40" fill="transparent" stroke="#34d399" stroke-width="1" rx="5"/>
  <text x="80" y="258" font-size="12" fill="#34d399">Status: Ready</text>
  
  <!-- Chunks Card -->
  <rect x="340" y="150" width="270" height="130" fill="#0d1a2b" rx="8"/>
  <rect x="360" y="170" width="230" height="50" fill="#0a1423" rx="5"/>
  <text x="370" y="190" font-size="12" fill="#9db0c8">📊 Total Chunks</text>
  <text x="370" y="215" font-size="28" fill="#34d399" font-weight="bold">87</text>
  
  <rect x="360" y="235" width="230" height="40" fill="transparent" stroke="#34d399" stroke-width="1" rx="5"/>
  <text x="370" y="258" font-size="12" fill="#34d399">Avg: 17.4 per doc</text>
  
  <!-- API Status Card -->
  <rect x="630" y="150" width="270" height="130" fill="#0d1a2b" rx="8"/>
  <rect x="650" y="170" width="230" height="50" fill="#0a1423" rx="5"/>
  <text x="660" y="190" font-size="12" fill="#9db0c8">🤖 Gemini API</text>
  <text x="660" y="215" font-size="28" fill="#34d399" font-weight="bold">✓ Connected</text>
  
  <rect x="650" y="235" width="230" height="40" fill="transparent" stroke="#34d399" stroke-width="1" rx="5"/>
  <text x="660" y="258" font-size="12" fill="#34d399">Status: Operational</text>
  
  <!-- Database Card -->
  <rect x="920" y="150" width="230" height="130" fill="#0d1a2b" rx="8"/>
  <rect x="940" y="170" width="190" height="50" fill="#0a1423" rx="5"/>
  <text x="950" y="190" font-size="12" fill="#9db0c8">🗄️ ChromaDB</text>
  <text x="950" y="215" font-size="28" fill="#34d399" font-weight="bold">Healthy</text>
  
  <rect x="940" y="235" width="190" height="40" fill="transparent" stroke="#34d399" stroke-width="1" rx="5"/>
  <text x="950" y="258" font-size="12" fill="#34d399">Connected</text>
  
  <!-- Indexing Info -->
  <rect x="50" y="300" width="1100" height="380" fill="#0d1a2b" rx="8"/>
  <text x="70" y="325" font-size="16" fill="#eef4fb" font-weight="bold">System Information</text>
  
  <rect x="70" y="345" width="1060" height="320" fill="#0a1423" rx="5"/>
  
  <!-- Info Items -->
  <text x="85" y="375" font-size="13" fill="#63d2ff" font-weight="bold">Last Indexing Timestamp</text>
  <text x="85" y="400" font-size="12" fill="#eef4fb">2026-06-11T17:58:46+00:00</text>
  
  <text x="85" y="435" font-size="13" fill="#63d2ff" font-weight="bold">Vector Database Size</text>
  <text x="85" y="460" font-size="12" fill="#eef4fb">~2.4 MB (87 embeddings)</text>
  
  <text x="85" y="495" font-size="13" fill="#63d2ff" font-weight="bold">Application Status</text>
  <text x="85" y="520" font-size="12" fill="#34d399">✓ All systems operational</text>
  <text x="85" y="545" font-size="12" fill="#eef4fb">- Streamlit Server: Running</text>
  <text x="85" y="565" font-size="12" fill="#eef4fb">- ChromaDB: Connected</text>
  <text x="85" y="585" font-size="12" fill="#eef4fb">- Gemini API: Responsive</text>
  <text x="85" y="605" font-size="12" fill="#eef4fb">- FlashRank Reranker: Ready</text>
  <text x="85" y="625" font-size="12" fill="#eef4fb">- Security Guardrails: Active</text>
  
  <!-- Footer -->
  <text x="50" y="690" font-size="11" fill="#9db0c8">Last Updated: 2026-06-18 14:02:51</text>
</svg>